<svg xmlns="http://www.w3.org/2000/svg" viewBox="0 0 100 100">
	<rect width="100" height="100" rx="10" fill="#22C55E"/>
	<g fill="white"> 
		<rect x="20" y="35" width="5" height="50" rx="2"/>
		<path d="M 15 25 Q 22.5 15 30 25 L 30 40 Q 22.5 45 15 40 Z"/>
		<rect x="20" y="35" width="5" height="8" fill="#8B4513"/> 
		<rect x="50" y="35" width="5" height="50" rx="2"/>
		<rect x="42" y="20" width="21" height="4" rx="1"/>
		<rect x="44" y="24" width="3" height="12" rx="1"/>
		<rect x="49" y="24" width="3" height="12" rx="1"/>
		<rect x="54" y="24" width="3" height="12" rx="1"/>
		<rect x="59" y="24" width="3" height="12" rx="1"/>
		<rect x="50" y="35" width="5" height="8" fill="#8B4513"/> 
		<ellipse cx="75" cy="30" rx="12" ry="8" transform="rotate(-30 75 30)"/>
		<ellipse cx="78" cy="35" rx="12" ry="8" transform="rotate(30 78 35)"/>
		<rect x="72" y="38" width="6" height="20" rx="3"/>
		<rect x="75" y="55" width="8" height="25" rx="3"/>
		<circle cx="75" cy="42" r="2" fill="#22C55E"/>
	</g>
</svg>