<svg xmlns="http://www.w3.org/2000/svg" viewBox="0 0 100 100">
	<rect width="100" height="100" rx="10" fill="#3B82F6"/>
	<g fill="white"> 
		<rect x="25" y="40" width="40" height="25" rx="5"/>
		<rect x="20" y="45" width="10" height="15" rx="2"/> 
		<rect x="35" y="60" width="12" height="25" rx="3"/>
		<rect x="33" y="80" width="16" height="8" rx="2"/> 
		<rect x="63" y="45" width="15" height="15" rx="2"/>
		<rect x="76" y="49" width="18" height="2"/>
		<polygon points="92,49 92,51 96,50"/> 
		<circle cx="41" cy="68" r="3" fill="#EF4444"/> 
		<rect x="30" y="45" width="20" height="1.5" fill="#3B82F6"/>
		<rect x="30" y="48" width="20" height="1.5" fill="#3B82F6"/>
		<rect x="30" y="51" width="20" height="1.5" fill="#3B82F6"/> 
		<path d="M 33 85 Q 28 88 25 93" stroke="white" stroke-width="3" fill="none" stroke-linecap="round"/>
		<rect x="20" y="91" width="8" height="5" rx="1"/>
	</g>
</svg>